<?xml version="1.0" encoding="utf-8"?><svg xmlns="http://www.w3.org/2000/svg" xmlns:xlink="http://www.w3.org/1999/xlink"><symbol viewBox="0 0 32 32" id="arrow" xmlns="http://www.w3.org/2000/svg"><path d="M22 9a1 1 0 000 1.42l4.6 4.6H3.06a1 1 0 100 2h23.52L22 21.59A1 1 0 0022 23a1 1 0 001.41 0l6.36-6.36a.88.88 0 000-1.27L23.42 9A1 1 0 0022 9z" data-name="Layer 2"/></symbol><symbol viewBox="0 0 32 32" id="close" xmlns="http://www.w3.org/2000/svg"><defs><style>.bcls-1{fill:none;stroke:#000;stroke-linecap:round;stroke-linejoin:round;stroke-width:2px}</style></defs><path class="bcls-1" d="M7 7l18 18M7 25L25 7" id="bcross"/></symbol><symbol viewBox="0 0 33.87 33.87" id="discord" xmlns="http://www.w3.org/2000/svg"><path d="M11.343 5.177c-1.076 0-4.32 1.316-4.902 1.579-.582.263-1.228 1.084-1.961 2.439-.734 1.355-1.323 2.939-2.28 5.269-.956 2.33-1.179 6.822-1.147 8.193.032 1.371.189 2.442 1.594 3.253 1.404.81 2.646 1.658 3.953 2.168 1.308.51 2.2.877 2.806.367.606-.51 1.005-1.403 1.005-1.403s.574-.797-.51-1.275c-1.084-.479-1.626-.814-1.579-1.308.048-.494.127-.765.398-.701.271.064.91 1.211 3.365 1.737s4.848.447 4.848.447 2.394.08 4.849-.447c2.455-.526 3.093-1.673 3.364-1.737.271-.064.35.207.398.7.048.495-.494.83-1.578 1.309-1.084.478-.51 1.275-.51 1.275s.399.892 1.005 1.403c.605.51 1.498.143 2.805-.367 1.307-.51 2.55-1.357 3.954-2.168 1.405-.811 1.562-1.882 1.594-3.253.032-1.37-.191-5.863-1.148-8.193-.956-2.33-1.546-3.914-2.28-5.269-.732-1.355-1.379-2.176-1.96-2.44-.582-.262-3.827-1.578-4.903-1.578-1.076 0-1.394.75-1.394.75l-.375.829s-2.52-.479-3.804-.48c-1.284 0-3.837.48-3.837.48l-.375-.83s-.318-.749-1.395-.749zm.117 9.948h.04c1.569 0 2.84 1.373 2.84 3.066 0 1.694-1.271 3.066-2.84 3.066s-2.84-1.372-2.84-3.066c-.001-1.677 1.247-3.043 2.8-3.066zm10.907 0h.04c1.553.023 2.8 1.39 2.8 3.066 0 1.694-1.271 3.066-2.84 3.066-1.57 0-2.84-1.372-2.84-3.066 0-1.693 1.27-3.066 2.84-3.066z" paint-order="fill markers stroke"/></symbol><symbol viewBox="0 0 439.37 331.47" id="email" xmlns="http://www.w3.org/2000/svg"><g stroke-width="30.66"><path d="M424.043 316.141V15.327H15.327v300.814h408.716z"/><path d="M19.13 19.16l176.32 178.668c13.069 13.17 36.85 13.014 49.643.12L421.29 20.598M25.184 306.236L160.28 168.13m252.357 136.514l-131.453-134.6"/></g></symbol><symbol viewBox="0 0 512 512" id="email-form" xmlns="http://www.w3.org/2000/svg"><path d="M64 128v256h384V128H64zm192 139.9L93.2 144h325.6L256 267.9zM80 368V154.1l115.1 87.6L127 319l2 2 78.9-69.6L256 288l48.1-36.6L383 321l2-2-68.1-77.4L432 154.1V368H80z"/></symbol><symbol viewBox="0 0 56.7 56.7" id="instagram" xmlns="http://www.w3.org/2000/svg"><path d="M28.2 16.7c-7 0-12.8 5.7-12.8 12.8s5.7 12.8 12.8 12.8S41 36.5 41 29.5s-5.8-12.8-12.8-12.8zm0 21c-4.5 0-8.2-3.7-8.2-8.2s3.7-8.2 8.2-8.2 8.2 3.7 8.2 8.2-3.7 8.2-8.2 8.2z"/><circle cx="41.5" cy="16.4" r="2.9"/><path d="M49 8.9c-2.6-2.7-6.3-4.1-10.5-4.1H17.9c-8.7 0-14.5 5.8-14.5 14.5v20.5c0 4.3 1.4 8 4.2 10.7 2.7 2.6 6.3 3.9 10.4 3.9h20.4c4.3 0 7.9-1.4 10.5-3.9 2.7-2.6 4.1-6.3 4.1-10.6V19.3c0-4.2-1.4-7.8-4-10.4zm-.4 31c0 3.1-1.1 5.6-2.9 7.3s-4.3 2.6-7.3 2.6H18c-3 0-5.5-.9-7.3-2.6C8.9 45.4 8 42.9 8 39.8V19.3c0-3 .9-5.5 2.7-7.3 1.7-1.7 4.3-2.6 7.3-2.6h20.6c3 0 5.5.9 7.3 2.7 1.7 1.8 2.7 4.3 2.7 7.2v20.6z"/></symbol><symbol viewBox="0 0 512 512" id="telegram" xmlns="http://www.w3.org/2000/svg"><path d="M484.689 98.231l-69.417 327.37c-5.237 23.105-18.895 28.854-38.304 17.972L271.2 365.631l-51.034 49.086c-5.647 5.647-10.372 10.372-21.256 10.372l7.598-107.722L402.539 140.23c8.523-7.598-1.848-11.809-13.247-4.21L146.95 288.614 42.619 255.96c-22.694-7.086-23.104-22.695 4.723-33.579L455.423 65.166c18.893-7.085 35.427 4.209 29.266 33.065z"/></symbol><symbol viewBox="0 0 56.69 56.69" id="twitter" xmlns="http://www.w3.org/2000/svg"><path d="M52.837 15.065a20.11 20.11 0 01-5.805 1.591 10.125 10.125 0 004.444-5.592 20.232 20.232 0 01-6.418 2.454 10.093 10.093 0 00-7.377-3.192c-5.581 0-10.106 4.525-10.106 10.107 0 .791.089 1.562.262 2.303-8.4-.422-15.848-4.445-20.833-10.56a10.055 10.055 0 00-1.368 5.082c0 3.506 1.784 6.6 4.496 8.412a10.078 10.078 0 01-4.578-1.265l-.001.128c0 4.896 3.484 8.98 8.108 9.91a10.162 10.162 0 01-4.565.172c1.287 4.015 5.019 6.938 9.441 7.019a20.276 20.276 0 01-12.552 4.327c-.815 0-1.62-.048-2.411-.142a28.6 28.6 0 0015.493 4.541c18.591 0 28.756-15.4 28.756-28.756 0-.438-.009-.875-.028-1.309a20.47 20.47 0 005.042-5.23z"/></symbol></svg>