<?xml version="1.0" standalone="no"?>
<!DOCTYPE svg PUBLIC "-//W3C//DTD SVG 20010904//EN"
 "http://www.w3.org/TR/2001/REC-SVG-20010904/DTD/svg10.dtd">
<svg version="1.0" xmlns="http://www.w3.org/2000/svg"
 width="87.000000pt" height="87.000000pt" viewBox="0 0 87.000000 87.000000"
 preserveAspectRatio="xMidYMid meet">
<metadata>
Created by potrace 1.14, written by Peter Selinger 2001-2017
</metadata>
<g transform="translate(0.000000,87.000000) scale(0.100000,-0.100000)"
fill="#000000" stroke="none">
<path d="M380 844 c-119 -68 -216 -171 -223 -237 -2 -20 -12 -46 -23 -58 -11
-13 -19 -36 -19 -62 -1 -23 -9 -56 -17 -72 -9 -17 -19 -47 -22 -69 -5 -31 -4
-37 9 -32 10 3 15 -1 16 -14 1 -11 3 -24 4 -30 1 -5 3 -15 4 -21 0 -6 30 -40
66 -76 36 -36 65 -68 65 -73 0 -4 13 -13 30 -19 16 -5 30 -14 30 -19 0 -15 52
-34 63 -23 11 11 46 -3 59 -23 5 -7 11 -6 20 5 17 21 43 30 55 18 14 -14 61 9
69 33 4 14 9 16 18 9 9 -8 21 1 45 33 18 24 46 53 62 65 45 34 66 71 68 124 1
9 6 16 13 15 21 -5 20 32 -3 79 -13 26 -23 66 -24 90 0 31 -7 49 -27 70 -15
15 -36 53 -47 84 -26 69 -93 140 -180 192 -34 20 -63 37 -64 37 -1 0 -22 -12
-47 -26z m53 -51 c4 -3 30 -14 58 -24 77 -27 114 -61 150 -137 18 -37 42 -77
53 -89 17 -20 18 -28 8 -59 -9 -30 -8 -40 8 -67 14 -24 18 -47 15 -89 -5 -84
-12 -101 -39 -94 -17 4 -22 1 -23 -14 -1 -11 -11 -34 -23 -51 -18 -24 -25 -27
-36 -18 -11 9 -21 4 -47 -25 -24 -26 -44 -37 -72 -41 -22 -2 -41 -9 -43 -15
-3 -7 -8 -7 -18 1 -7 6 -30 12 -50 13 -27 2 -44 12 -70 40 -27 29 -38 35 -48
27 -16 -14 -41 11 -56 56 -8 23 -16 30 -30 26 -22 -6 -29 13 -35 93 -3 45 0
66 15 91 15 26 17 38 8 67 -10 31 -8 38 16 66 14 17 26 36 26 41 0 37 117 163
175 190 45 21 49 22 58 12z"/>
<path d="M487 494 l-56 -24 -51 20 c-114 45 -156 19 -142 -89 7 -52 15 -68 40
-92 37 -34 54 -39 25 -6 -27 29 -42 59 -42 83 0 10 -3 33 -7 50 -11 56 47 76
113 38 52 -30 62 -30 122 1 41 22 53 24 77 15 16 -6 31 -16 35 -21 11 -18 -19
-131 -42 -155 -35 -37 -17 -38 20 -1 26 26 34 42 36 77 1 25 4 50 5 55 7 30
-9 53 -46 64 -24 7 -44 3 -87 -15z"/>
<path d="M290 439 c-11 -7 -6 -9 21 -5 23 3 43 0 55 -9 17 -12 14 -13 -26 -9
l-45 5 35 -20 c42 -24 61 -26 54 -6 -4 9 0 15 7 15 9 1 5 8 -10 20 -25 22 -67
26 -91 9z"/>
<path d="M483 438 c-13 -6 -23 -15 -23 -20 0 -12 12 -9 33 6 10 8 32 12 50 10
24 -4 28 -2 17 5 -19 13 -49 13 -77 -1z"/>
<path d="M488 409 c-10 -5 -18 -14 -18 -19 0 -16 23 -11 55 10 30 20 30 20 5
20 -14 -1 -33 -5 -42 -11z"/>
<path d="M381 331 c-8 -5 -11 -16 -8 -25 5 -14 11 -15 27 -6 21 11 23 31 4 37
-5 1 -15 -1 -23 -6z"/>
<path d="M440 325 c-10 -12 -8 -16 11 -24 30 -11 47 3 29 24 -16 19 -24 19
-40 0z"/>
<path d="M350 252 c-30 -5 -60 -30 -60 -49 0 -10 9 -7 31 9 26 19 43 23 109
23 66 0 83 -4 109 -23 24 -18 31 -19 31 -8 0 30 -49 50 -124 52 -39 0 -82 -1
-96 -4z"/>
</g>
</svg>
